<svg version="1.1" id="Layer_1" xmlns="http://www.w3.org/2000/svg" xmlns:xlink="http://www.w3.org/1999/xlink" x="0px" y="0px"
	 width="100%" viewBox="0 0 520 722" enable-background="new 0 0 520 722" xml:space="preserve">

<path fill="#fff" opacity="1.000000" stroke="none" 
	d="
M343.531616,1.000002 
	C344.936310,1.665675 345.835724,2.850037 346.814392,2.919577 
	C362.682678,4.047106 377.655975,8.287846 391.864441,15.397881 
	C417.519196,28.235750 433.604462,48.666992 439.916626,76.576683 
	C443.688629,93.254822 443.330872,109.953873 440.296997,126.890068 
	C437.438843,142.845367 432.323090,157.916901 425.145599,172.195648 
	C416.327606,189.738022 405.861237,206.289230 393.197784,221.502899 
	C374.701843,243.723755 352.825867,262.019989 329.727417,279.097595 
	C310.221008,293.519440 290.100403,306.925140 268.147064,317.358063 
	C253.846085,324.154388 238.847687,328.340240 222.892792,329.054840 
	C204.630417,329.872833 189.788361,315.579712 186.029053,299.520020 
	C183.197601,287.424133 186.460098,276.316864 190.811096,265.098297 
	C197.075317,248.946671 205.158112,234.091431 218.158615,222.405945 
	C232.113983,209.862198 248.265366,205.453201 266.457214,211.068527 
	C278.613434,214.820801 283.487518,227.781784 275.841309,237.768707 
	C268.290771,247.630707 259.365662,256.453766 250.892120,265.592194 
	C240.072815,277.260376 227.553635,287.691223 222.096283,303.301880 
	C220.997604,306.444641 221.055664,311.731140 222.974472,313.723114 
	C225.091721,315.921082 230.180786,316.613373 233.603073,315.972687 
	C252.991943,312.342957 269.639740,302.364594 285.207458,290.994843 
	C302.276276,278.528778 318.421783,264.795563 334.924133,251.557755 
	C349.463501,239.894577 361.112305,225.513626 371.682465,210.400330 
	C383.089142,194.090912 391.304932,176.078979 394.763489,156.299881 
	C397.382507,141.321991 395.748352,126.814728 386.926147,113.940216 
	C379.043854,102.437317 366.283142,98.724365 352.659332,100.554329 
	C331.189636,103.438164 313.391815,114.546730 295.534393,125.327553 
	C276.099060,137.060989 256.975891,149.356110 238.179779,162.090027 
	C222.348267,172.815506 207.392975,184.828445 191.652451,195.695969 
	C178.797653,204.571121 164.603226,210.439682 148.555374,209.969177 
	C129.374924,209.406845 111.372147,192.835861 107.947701,174.949890 
	C104.803413,158.527222 110.817505,144.178329 118.371758,130.522079 
	C127.239182,114.491943 138.965530,100.405144 152.023300,87.593216 
	C168.719208,71.211617 187.397369,57.267792 207.457596,45.280205 
	C231.780258,30.745476 256.927917,17.745228 284.336090,10.084203 
	C296.377106,6.718544 308.964874,5.313322 321.295319,2.970361 
	C322.342712,2.771336 323.321533,2.211337 324.166107,1.409517 
	C330.354401,1.000000 336.708801,1.000000 343.531616,1.000002 
z"/>
<path fill="#fff" opacity="1.000000" stroke="none" 
	d="
M1.000004,545.468262 
	C1.660681,544.466492 2.744805,544.045105 2.920134,543.383057 
	C7.341024,526.690002 17.390253,515.165771 34.344913,511.041626 
	C46.646423,508.049347 59.275375,506.860107 72.006874,508.852661 
	C74.741653,509.280670 77.600647,508.915131 80.346184,508.915131 
	C82.700554,495.635529 74.623924,484.275696 60.420147,483.844879 
	C48.247211,483.475677 37.620872,487.826233 27.031376,492.611206 
	C23.285017,494.304077 21.704187,494.318298 20.303873,489.948669 
	C18.324457,483.772064 15.410110,477.895050 12.802516,471.668152 
	C25.969351,464.770569 39.198040,459.437958 54.029518,457.779236 
	C67.735428,456.246460 80.513252,457.562714 92.303749,464.785339 
	C104.731651,472.398407 111.842644,483.296295 112.029884,498.293457 
	C112.235100,514.730225 112.844704,531.163330 112.931549,547.599792 
	C112.980515,556.866882 113.061440,566.251343 111.643326,575.351624 
	C111.062347,579.079895 107.111122,582.918335 103.752960,585.468811 
	C88.956947,596.706116 72.298630,602.015503 53.454388,602.267883 
	C38.469944,602.468567 25.903891,598.202026 15.536064,587.854858 
	C9.364367,581.695496 4.823926,574.239929 2.935611,565.466248 
	C2.780403,564.745117 2.110198,564.134766 1.339636,563.736450 
	C1.000000,557.978821 1.000000,551.957703 1.000004,545.468262 
M52.665443,534.997803 
	C41.938473,536.273010 36.015324,544.736694 35.978687,552.475525 
	C35.907482,567.515320 44.706818,575.189148 58.125118,576.890198 
	C65.405800,577.813171 72.582298,575.438354 77.460541,570.348999 
	C79.940491,567.761780 79.306320,562.147949 79.968384,557.885010 
	C80.169983,556.586853 79.999687,555.230957 79.999687,553.901550 
	C79.999695,547.333252 79.999695,540.764954 79.999695,534.019165 
	C71.748909,534.019165 64.280830,533.980347 56.814056,534.061768 
	C55.718994,534.073730 54.630165,534.657288 52.665443,534.997803 
z"/>
<path fill="#fff" opacity="1.000000" stroke="none" 
	d="
M521.000000,601.531372 
	C512.312805,601.332825 503.415100,601.631042 494.983276,599.792480 
	C478.697815,596.241516 468.079041,583.876831 468.036530,566.298767 
	C467.927307,521.152527 468.038910,476.005737 467.933014,430.859497 
	C467.923615,426.860413 468.600311,425.233002 473.251495,424.769135 
	C481.980408,423.898590 490.582031,421.752167 500.000061,419.993835 
	C500.000061,422.124512 500.000061,424.015747 500.000061,425.906952 
	C500.000244,471.719818 500.204437,517.534241 499.854675,563.344421 
	C499.769196,574.537048 505.731659,577.435791 515.230652,578.979614 
	C516.855530,579.243652 518.520874,579.259277 520.583740,579.194824 
	C521.000000,586.354248 521.000000,593.708496 521.000000,601.531372 
z"/>
<path fill="#fff" opacity="1.000000" stroke="none" 
	d="
M383.464661,723.000000 
	C381.495728,720.334534 379.782074,717.762451 378.541779,714.979370 
	C377.095825,711.734863 378.205139,709.906799 382.012054,709.967590 
	C384.308716,710.004333 386.764954,710.170044 388.880402,709.467529 
	C394.449402,707.618225 396.724213,701.399231 394.006042,696.087158 
	C386.991241,682.378418 381.138367,668.227051 377.643890,653.185913 
	C377.140503,651.019165 377.125885,648.738831 376.830627,646.007629 
	C379.934906,646.007629 382.456604,645.659973 384.840027,646.085938 
	C388.811646,646.795532 391.878723,648.370300 393.135468,653.094727 
	C395.920624,663.564758 399.416718,673.845642 402.622925,684.203674 
	C403.408478,684.193115 404.194031,684.182556 404.979584,684.171997 
	C407.647278,674.925964 410.324097,665.682556 412.973114,656.431152 
	C413.376770,655.021545 414.006226,653.553589 413.921112,652.149658 
	C413.642700,647.555603 415.235016,645.503052 420.185638,645.912476 
	C425.683167,646.367126 427.990479,647.627930 427.768768,652.851318 
	C427.564911,657.653259 426.403900,662.522278 424.966461,667.144714 
	C419.962280,683.236816 414.316864,699.121643 405.094849,713.372681 
	C402.838562,716.859497 399.282928,719.505432 396.662354,722.768921 
	C392.643097,723.000000 388.286194,723.000000 383.464661,723.000000 
z"/>
<path fill="#fff" opacity="1.000000" stroke="none" 
	d="
M449.586548,588.674438 
	C436.635925,596.550720 422.980011,600.760864 408.182861,602.141052 
	C393.069702,603.550537 379.130310,601.010620 366.950989,591.896057 
	C355.517059,583.339294 348.267273,571.462830 344.568634,557.893860 
	C337.460602,531.817444 339.734772,506.732178 353.428406,482.813080 
	C360.724609,470.068573 371.298248,462.564819 385.177429,459.445435 
	C400.374725,456.029846 415.121277,458.538696 428.287354,466.386505 
	C436.729492,471.418549 442.207245,480.004791 445.606964,489.325439 
	C450.783417,503.517212 452.344696,518.308777 451.930481,533.928040 
	C425.921112,533.928040 400.197784,533.928040 374.554138,533.928040 
	C372.894745,546.823120 379.992096,567.136230 392.364075,573.612244 
	C400.702942,577.977173 409.645142,578.196655 418.591187,575.111816 
	C426.434326,572.407288 434.272095,569.687378 442.763458,566.748901 
	C445.241516,573.001160 447.730499,579.131287 450.058441,585.321899 
	C450.393127,586.211914 449.951630,587.393738 449.586548,588.674438 
M409.455444,487.965302 
	C401.075104,480.227203 387.534058,482.877655 382.195770,491.804443 
	C379.184418,496.840149 377.504700,502.672150 374.975433,508.744995 
	C390.324982,508.744995 404.359955,508.744995 418.482056,508.744995 
	C416.929047,501.256714 415.637146,493.950684 409.455444,487.965302 
z"/>
<path fill="#fff" opacity="1.000000" stroke="none" 
	d="
M310.581238,421.564880 
	C310.909027,433.092346 311.057312,444.251923 310.941132,455.408752 
	C310.905090,458.868958 312.041321,460.208252 315.555573,460.053864 
	C320.507111,459.836365 325.475342,459.998901 330.713501,459.998901 
	C330.713501,468.355469 330.713501,476.283417 330.713501,484.790466 
	C324.416077,484.790466 318.021790,484.790466 311.000122,484.790466 
	C311.000122,487.124512 311.000092,488.891724 311.000092,490.658905 
	C311.000061,508.649536 310.999969,526.640137 311.000061,544.630798 
	C311.000092,551.497864 310.950317,558.365356 311.014587,565.231812 
	C311.080933,572.315674 314.642120,576.654663 321.490570,577.943298 
	C324.709900,578.549133 327.981201,578.878906 331.626221,579.389404 
	C331.626221,586.566956 331.626221,593.956482 331.626221,601.943848 
	C315.399933,602.028503 299.426117,601.694336 286.739746,589.232239 
	C280.790863,583.388428 278.169586,575.848755 278.125488,567.928162 
	C277.869598,521.953552 278.028320,475.976715 277.944580,430.000824 
	C277.938202,426.504517 278.793091,425.220459 282.616119,424.834442 
	C290.067963,424.082031 297.415588,422.334900 304.830170,421.148499 
	C306.605408,420.864471 308.474091,421.164520 310.581238,421.564880 
z"/>
<path fill="#fff" opacity="1.000000" stroke="none" 
	d="
M243.565903,485.958069 
	C235.985916,487.549622 228.845108,489.080292 221.722229,490.690308 
	C218.664886,491.381378 217.910156,493.363495 217.922256,496.475739 
	C218.048523,528.971619 218.000015,561.468140 217.999954,593.964478 
	C217.999954,595.769897 217.999985,597.575317 217.999985,599.684631 
	C207.368134,599.684631 197.104065,599.684631 186.000015,599.684631 
	C186.000015,597.930115 186.000015,596.022339 186.000015,594.114563 
	C186.000015,560.951660 186.320847,527.783569 185.792313,494.629089 
	C185.645615,485.425720 189.669189,479.340912 196.190552,474.515381 
	C209.980240,464.311615 225.211258,457.425903 242.746262,457.015045 
	C249.112564,456.865906 255.491486,456.837372 261.853394,457.066376 
	C266.199158,457.222839 268.343140,460.039062 266.783661,464.147217 
	C264.177887,471.011658 261.379761,477.912537 257.592468,484.148071 
	C256.542114,485.877411 251.722626,485.374207 248.616806,485.774139 
	C247.100464,485.969391 245.548294,485.886383 243.565903,485.958069 
z"/>
<path fill="#fff" opacity="1.000000" stroke="none" 
	d="
M165.000626,563.000000 
	C165.000626,575.453918 165.000626,587.407837 165.000626,599.679321 
	C154.266769,599.679321 143.896332,599.679321 133.261871,599.679321 
	C133.261871,554.833191 133.261871,510.151184 133.261871,465.241302 
	C143.710770,463.686005 153.998718,462.154663 165.000626,460.517059 
	C165.000626,495.041931 165.000626,528.770996 165.000626,563.000000 
z"/>
<path fill="#fff" opacity="1.000000" stroke="none" 
	d="
M133.166748,695.999512 
	C133.111130,688.503967 133.163147,681.005310 132.943558,673.514587 
	C132.862854,670.761353 132.446198,667.933228 131.641647,665.304932 
	C130.287033,660.879761 125.658401,657.643738 121.296494,659.293091 
	C118.335823,660.412720 115.385002,663.880371 114.266914,666.963989 
	C112.862885,670.836243 113.124374,675.385376 113.045158,679.649475 
	C112.890961,687.949402 112.999985,696.254211 112.999985,704.497681 
	C104.286972,705.538513 98.483849,702.097473 98.221443,694.539734 
	C97.854584,683.973572 97.937813,673.245117 99.409546,662.809143 
	C100.543533,654.768005 105.748756,648.505554 114.306984,646.341431 
	C123.408859,644.039856 132.223572,643.732910 139.566132,651.067505 
	C140.153305,651.654053 140.785538,652.195618 141.396133,652.757446 
	C151.408508,642.319153 162.528580,643.874451 171.046280,647.989014 
	C177.982391,651.339661 181.476624,657.379089 181.811417,664.425964 
	C182.442398,677.706787 181.993515,691.038940 181.993515,704.331360 
	C169.791336,704.946960 166.778107,702.135620 166.970367,692.479248 
	C167.116302,685.149841 167.064163,677.814514 166.979416,670.483215 
	C166.905136,664.057312 163.740021,659.713867 159.099762,658.983582 
	C151.457092,657.780762 148.032288,663.594849 148.010315,669.499084 
	C147.975571,678.830872 148.013550,688.163025 147.995651,697.494995 
	C147.985306,702.897522 144.998383,705.223511 139.323059,703.557495 
	C136.988953,700.762451 135.077850,698.380981 133.166748,695.999512 
z"/>
<path fill="#fff" opacity="1.000000" stroke="none" 
	d="
M202.837219,650.692078 
	C210.706070,646.206360 218.435608,643.563354 227.469391,645.722534 
	C238.024033,648.245239 243.810272,654.960266 247.404694,664.720947 
	C251.830963,676.740479 246.148239,696.184998 236.117447,701.577332 
	C226.494812,706.750305 216.761963,707.841553 207.121872,702.890259 
	C197.413223,697.903748 193.233566,689.291992 192.881546,678.303345 
	C192.543243,667.742798 194.688599,658.425354 202.837219,650.692078 
M210.358444,685.813721 
	C213.583481,690.556519 217.999588,693.188782 223.722427,691.864685 
	C228.839310,690.680786 231.706802,686.546082 232.596558,681.705444 
	C233.669357,675.868896 233.513565,669.990723 230.218430,664.529968 
	C227.816818,660.549988 224.406326,659.144531 220.038086,658.970581 
	C215.755890,658.800171 212.998108,660.731445 210.878098,664.348206 
	C206.877258,671.173767 207.700500,678.061951 210.358444,685.813721 
z"/>
<path fill="#fff" opacity="1.000000" stroke="none" 
	d="
M363.941528,649.988403 
	C371.514984,655.682129 373.323059,663.558899 371.623779,671.756042 
	C370.974365,674.888672 366.997040,678.786072 363.815582,679.635498 
	C357.260803,681.385376 350.225464,681.368774 343.378326,681.970642 
	C341.235199,682.158997 339.061554,682.000000 336.864594,682.000000 
	C339.551239,694.186096 352.754974,696.271667 369.397949,687.311707 
	C371.471405,698.276550 367.895874,702.925598 356.955994,705.101990 
	C344.912567,707.497864 334.701874,704.806274 326.923035,695.273987 
	C321.602417,688.754089 318.862976,681.077759 320.821045,672.487549 
	C321.894287,667.779114 322.787476,662.825195 324.976135,658.612915 
	C332.151154,644.804016 351.405243,640.668213 363.941528,649.988403 
M343.513000,671.000000 
	C347.090363,670.619507 350.737335,670.551941 354.226746,669.775879 
	C358.208801,668.890198 359.013397,666.282288 356.898254,662.704773 
	C354.410492,658.496887 348.794800,656.719788 343.895844,658.590088 
	C336.900360,661.260742 335.455505,663.677673 336.659393,671.000000 
	C338.605499,671.000000 340.592285,671.000000 343.513000,671.000000 
z"/>
<path fill="#fff" opacity="1.000000" stroke="none" 
	d="
M308.078857,704.974182 
	C304.616241,704.012024 300.979767,703.753113 298.758270,701.846069 
	C296.714142,700.091187 295.329071,696.614319 295.163666,693.807068 
	C294.694550,685.845764 295.095367,677.837280 294.962738,669.850525 
	C294.877197,664.701904 291.541443,660.301636 287.251953,659.143005 
	C282.751434,657.927429 277.901337,659.575500 275.976410,663.742065 
	C274.726318,666.447876 274.147308,669.671875 274.085266,672.680664 
	C273.866302,683.294189 274.000092,693.914978 274.000092,704.474182 
	C263.099823,705.726013 258.457458,701.255493 258.926086,692.173340 
	C259.294342,685.035583 259.154480,677.859619 258.966827,670.707764 
	C258.608521,657.052124 265.997101,647.303467 280.145813,645.209106 
	C293.009491,643.304932 305.337921,648.106628 309.454651,663.008545 
	C309.927063,664.718689 309.969604,666.585022 309.977325,668.380005 
	C310.023132,679.031616 310.059235,689.684326 309.934052,700.334717 
	C309.915863,701.881409 309.014557,703.417725 308.078857,704.974182 
z"/>
<path fill="#fff" opacity="1.000000" stroke="none" 
	d="
M130.662048,415.871429 
	C139.158829,403.728485 157.413864,405.055695 164.306320,413.717468 
	C170.051468,420.937378 170.618149,428.882721 167.415939,436.869324 
	C164.340057,444.540863 157.870819,447.533112 149.516693,448.163300 
	C137.314392,449.083801 128.534714,441.534698 127.814720,431.162079 
	C127.472939,426.238129 129.460602,421.152496 130.662048,415.871429 
z"/>
<path fill="#fff" opacity="1.000000" stroke="none" 
	d="
M133.100708,696.369507 
	C135.077850,698.380981 136.988953,700.762451 138.950500,703.488586 
	C135.441101,702.790100 133.367645,700.496765 133.100708,696.369507 
z"/>

</svg>