<svg version="1.1" id="Layer_1" xmlns="http://www.w3.org/2000/svg" xmlns:xlink="http://www.w3.org/1999/xlink" x="0px" y="0px"
	 width="100%" viewBox="0 0 500 500" enable-background="new 0 0 500 500" xml:space="preserve">
<path fill="#008CF0" opacity="1.000000" stroke="none" 
	d="
M150.068359,26.988733 
	C168.508850,18.598726 187.436844,12.860881 206.907822,9.227243 
	C217.174026,7.311384 227.744568,7.005680 238.184998,6.053093 
	C243.100998,5.604554 248.047134,4.919462 252.957596,5.068349 
	C286.294800,6.079146 318.665192,11.815387 349.482086,25.115236 
	C370.242157,34.074795 389.607941,45.409321 407.067444,59.713730 
	C430.459381,78.878616 450.025665,101.435051 464.984863,127.852097 
	C473.576782,143.024979 480.960510,158.710526 486.129669,175.408813 
	C490.846649,190.646408 494.864410,206.035767 495.931793,222.009476 
	C496.822784,235.343292 498.304199,248.742569 497.767212,262.041931 
	C496.991882,281.244415 494.046844,300.266266 488.640594,318.841766 
	C483.492462,336.530365 476.803009,353.549194 468.044067,369.761200 
	C460.109344,384.447571 450.816650,398.208038 439.732635,410.684937 
	C433.462799,417.742645 426.968292,424.630554 420.201355,431.210724 
	C405.235657,445.763397 388.248199,457.559540 369.951294,467.592255 
	C351.338776,477.798004 331.737976,485.468933 311.130615,490.251373 
	C299.594666,492.928558 287.763916,494.634216 275.969543,495.811066 
	C265.285675,496.877136 254.422791,497.423462 243.725555,496.772980 
	C228.901794,495.871490 213.981522,494.558655 199.423157,491.756409 
	C177.196777,487.478180 156.021225,479.558624 135.987839,468.941040 
	C120.979713,460.986755 107.007011,451.450775 93.939644,440.523438 
	C75.681107,425.255096 59.403976,408.054718 46.878059,387.944977 
	C37.381840,372.699219 29.639502,356.260345 22.204754,339.859192 
	C14.605634,323.095490 10.570265,305.007446 8.333439,286.860779 
	C6.318182,270.511627 5.547078,253.818329 6.272780,237.367050 
	C7.350828,212.928299 12.416423,189.056168 20.906519,165.961365 
	C28.989492,143.973999 39.841885,123.530685 53.795261,104.748924 
	C66.695694,87.384483 81.547516,72.001053 98.620270,58.538998 
	C114.493980,46.022396 131.688766,35.965275 150.068359,26.988733 
M104.833412,198.500000 
	C104.833412,246.548706 104.833412,294.597412 104.833412,342.692871 
	C115.466164,342.692871 125.360130,342.692871 135.843323,342.692871 
	C135.843323,320.313995 135.843323,298.262634 135.843323,275.673523 
	C141.884109,275.673523 147.343079,275.834412 152.789520,275.641541 
	C165.910065,275.176880 179.188156,275.653290 192.106766,273.745850 
	C216.706375,270.113770 233.269836,248.849457 233.209869,222.964996 
	C233.151428,197.729477 217.036575,176.621628 192.048340,174.434570 
	C163.467209,171.933044 134.581345,172.913071 105.827644,172.394089 
	C105.698997,172.391769 105.566772,172.587753 104.833214,173.168610 
	C104.833214,180.951462 104.833214,189.225739 104.833412,198.500000 
M290.641876,295.499939 
	C290.641876,287.088104 290.641876,278.676270 290.641876,269.849823 
	C312.148041,269.849823 332.900360,269.849823 353.703888,269.849823 
	C353.703888,261.353394 353.703888,253.296494 353.703888,244.833893 
	C332.615540,244.833893 311.850830,244.833893 290.997559,244.833893 
	C290.997559,229.377274 290.997559,214.335815 290.997559,198.709869 
	C317.389709,198.709869 343.431549,198.709869 369.317444,198.709869 
	C369.317444,189.873734 369.317444,181.630859 369.317444,173.494995 
	C332.667847,173.494995 296.405762,173.494995 260.057312,173.494995 
	C260.057312,230.404449 260.057312,286.988647 260.057312,343.676208 
	C297.024628,343.676208 333.730072,343.676208 370.422913,343.676208 
	C370.422913,334.754486 370.422913,326.192078 370.422913,317.050415 
	C343.679749,317.050415 317.289581,317.050415 290.641602,317.050415 
	C290.641602,309.808777 290.641602,303.154327 290.641876,295.499939 
z"/>
<path fill="#3F4142" opacity="1.000000" stroke="none" 
	d="
M104.833313,198.000000 
	C104.833214,189.225739 104.833214,180.951462 104.833214,173.168610 
	C105.566772,172.587753 105.698997,172.391769 105.827644,172.394089 
	C134.581345,172.913071 163.467209,171.933044 192.048340,174.434570 
	C217.036575,176.621628 233.151428,197.729477 233.209869,222.964996 
	C233.269836,248.849457 216.706375,270.113770 192.106766,273.745850 
	C179.188156,275.653290 165.910065,275.176880 152.789520,275.641541 
	C147.343079,275.834412 141.884109,275.673523 135.843323,275.673523 
	C135.843323,298.262634 135.843323,320.313995 135.843323,342.692871 
	C125.360130,342.692871 115.466164,342.692871 104.833412,342.692871 
	C104.833412,294.597412 104.833412,246.548706 104.833313,198.000000 
M199.268234,233.470276 
	C204.847519,214.660965 196.831451,200.676468 177.556488,198.591766 
	C163.957443,197.120956 150.071014,198.307251 136.086288,198.307251 
	C136.086288,215.204422 136.086288,231.873688 136.086288,248.688568 
	C150.047485,248.688568 163.678070,249.200745 177.248062,248.514603 
	C186.834045,248.029892 194.808289,243.629242 199.268234,233.470276 
z"/>
<path fill="#FCFEFF" opacity="1.000000" stroke="none" 
	d="
M290.641724,295.999939 
	C290.641602,303.154327 290.641602,309.808777 290.641602,317.050415 
	C317.289581,317.050415 343.679749,317.050415 370.422913,317.050415 
	C370.422913,326.192078 370.422913,334.754486 370.422913,343.676208 
	C333.730072,343.676208 297.024628,343.676208 260.057312,343.676208 
	C260.057312,286.988647 260.057312,230.404449 260.057312,173.494995 
	C296.405762,173.494995 332.667847,173.494995 369.317444,173.494995 
	C369.317444,181.630859 369.317444,189.873734 369.317444,198.709869 
	C343.431549,198.709869 317.389709,198.709869 290.997559,198.709869 
	C290.997559,214.335815 290.997559,229.377274 290.997559,244.833893 
	C311.850830,244.833893 332.615540,244.833893 353.703888,244.833893 
	C353.703888,253.296494 353.703888,261.353394 353.703888,269.849823 
	C332.900360,269.849823 312.148041,269.849823 290.641876,269.849823 
	C290.641876,278.676270 290.641876,287.088104 290.641724,295.999939 
z"/>
<path fill="#008CEF" opacity="1.000000" stroke="none" 
	d="
M199.121735,233.832092 
	C194.808289,243.629242 186.834045,248.029892 177.248062,248.514603 
	C163.678070,249.200745 150.047485,248.688568 136.086288,248.688568 
	C136.086288,231.873688 136.086288,215.204422 136.086288,198.307251 
	C150.071014,198.307251 163.957443,197.120956 177.556488,198.591766 
	C196.831451,200.676468 204.847519,214.660965 199.121735,233.832092 
z"/>
</svg>