<svg version="1.1" id="Layer_1" xmlns="http://www.w3.org/2000/svg" xmlns:xlink="http://www.w3.org/1999/xlink" x="0px" y="0px"
	 width="100%" viewBox="0 0 164 72" enable-background="new 0 0 164 72" xml:space="preserve">
<path fill="#000000" opacity="1.000000" stroke="none" 
	d="
M1.000000,13.000000 
	C1.000000,9.004330 1.000000,5.008659 1.000000,1.009741 
	C55.603168,1.006494 110.206337,1.006494 164.904755,1.006494 
	C164.904755,24.910189 164.904755,48.820881 164.904755,72.865784 
	C110.333588,72.865784 55.666832,72.865784 1.000000,72.865784 
	C1.000000,69.283768 1.000000,65.621056 1.468657,61.479176 
	C17.503502,61.000000 33.069687,61.000000 48.660957,61.000000 
	C48.660957,44.751553 48.660957,28.931257 48.660957,13.000000 
	C32.548092,13.000000 16.774046,13.000000 1.000000,13.000000 
M89.004524,45.869354 
	C89.004524,50.796070 89.004524,55.722786 89.004524,60.633423 
	C94.609520,60.633423 99.782379,60.633423 104.658554,60.633423 
	C104.658554,55.204239 104.658554,50.144634 104.658554,45.068417 
	C99.185097,45.068417 94.052803,45.068417 88.994339,44.128201 
	C88.971764,39.064594 88.949188,34.000992 89.869415,28.995480 
	C94.796127,28.995480 99.722839,28.995480 104.633392,28.995480 
	C104.633392,23.390038 104.633392,18.217745 104.633392,13.341466 
	C99.204185,13.341466 94.144585,13.341466 89.068489,13.341466 
	C89.068489,18.815023 89.068489,23.947283 88.127228,29.005657 
	C83.191574,29.005657 78.255920,29.005657 72.948357,29.005657 
	C72.948357,23.482815 72.948357,18.409027 72.948357,13.208070 
	C67.499382,13.208070 62.437202,13.208070 57.343201,13.208070 
	C57.343201,29.245693 57.343201,45.072788 57.343201,60.667236 
	C62.757473,60.667236 67.824081,60.667236 73.258713,60.667236 
	C73.258713,55.266891 73.258713,50.199318 73.258713,44.926529 
	C78.782814,44.926529 83.922745,44.926529 89.004524,45.869354 
M117.582802,13.000000 
	C115.811760,13.000000 114.040726,13.000000 112.253357,13.000000 
	C112.253357,18.585541 112.253357,23.653759 112.253357,29.107544 
	C117.573097,29.107544 122.651741,29.107544 127.753098,29.107544 
	C127.753098,34.571907 127.753098,39.640057 127.753098,45.094635 
	C122.440483,45.094635 117.361359,45.094635 112.240570,45.094635 
	C112.240570,50.558338 112.240570,55.626118 112.240570,60.763107 
	C117.884697,60.763107 123.285423,60.763107 129.074295,60.763107 
	C129.074295,55.461411 129.074295,50.382351 129.074295,45.230526 
	C134.204224,45.230526 138.938629,45.230526 144.061890,45.230526 
	C144.061890,50.525158 144.061890,55.603943 144.061890,60.776169 
	C149.857147,60.776169 155.257355,60.776169 160.782211,60.776169 
	C160.782211,55.146873 160.782211,49.743332 160.782211,43.766647 
	C155.426773,44.184315 150.332397,44.581627 145.289673,44.974907 
	C145.289673,39.343510 145.289673,34.274296 145.289673,28.819828 
	C150.649063,28.819828 155.726761,28.819828 160.716614,28.819828 
	C160.716614,23.354504 160.716614,18.286350 160.716614,13.279607 
	C155.028076,13.279607 149.627029,13.279607 143.840179,13.279607 
	C143.840179,18.628153 143.840179,23.706871 143.840179,28.726631 
	C138.706512,28.726631 133.970779,28.726631 128.852661,28.726631 
	C128.852661,23.385202 128.852661,18.306505 128.852661,13.000000 
	C125.159439,13.000000 121.856567,13.000000 117.582802,13.000000 
z"/>
<path fill="#FFFFFF" opacity="1.000000" stroke="none" 
	d="
M1.000000,13.468657 
	C16.774046,13.000000 32.548092,13.000000 48.660957,13.000000 
	C48.660957,28.931257 48.660957,44.751553 48.660957,61.000000 
	C33.069687,61.000000 17.503502,61.000000 1.468657,61.000000 
	C1.000000,45.312439 1.000000,29.624876 1.000000,13.468657 
M17.420355,30.073717 
	C17.280251,31.208931 17.031374,32.342747 17.016731,33.479572 
	C16.855862,45.969463 17.575775,46.771481 29.963861,44.911892 
	C35.851288,44.028126 32.429840,39.007671 32.794167,35.972351 
	C33.072323,33.654961 35.083157,29.343626 29.962749,29.070938 
	C26.018337,28.860876 22.040588,29.276779 17.420355,30.073717 
z"/>
<path fill="#FFFFFF" opacity="1.000000" stroke="none" 
	d="
M118.068253,13.000000 
	C121.856567,13.000000 125.159439,13.000000 128.852661,13.000000 
	C128.852661,18.306505 128.852661,23.385202 128.852661,28.726631 
	C133.970779,28.726631 138.706512,28.726631 143.840179,28.726631 
	C143.840179,23.706871 143.840179,18.628153 143.840179,13.279607 
	C149.627029,13.279607 155.028076,13.279607 160.716614,13.279607 
	C160.716614,18.286350 160.716614,23.354504 160.716614,28.819828 
	C155.726761,28.819828 150.649063,28.819828 145.289673,28.819828 
	C145.289673,34.274296 145.289673,39.343510 145.289673,44.974907 
	C150.332397,44.581627 155.426773,44.184315 160.782211,43.766647 
	C160.782211,49.743332 160.782211,55.146873 160.782211,60.776169 
	C155.257355,60.776169 149.857147,60.776169 144.061890,60.776169 
	C144.061890,55.603943 144.061890,50.525158 144.061890,45.230526 
	C138.938629,45.230526 134.204224,45.230526 129.074295,45.230526 
	C129.074295,50.382351 129.074295,55.461411 129.074295,60.763107 
	C123.285423,60.763107 117.884697,60.763107 112.240570,60.763107 
	C112.240570,55.626118 112.240570,50.558338 112.240570,45.094635 
	C117.361359,45.094635 122.440483,45.094635 127.753098,45.094635 
	C127.753098,39.640057 127.753098,34.571907 127.753098,29.107544 
	C122.651741,29.107544 117.573097,29.107544 112.253357,29.107544 
	C112.253357,23.653759 112.253357,18.585541 112.253357,13.000000 
	C114.040726,13.000000 115.811760,13.000000 118.068253,13.000000 
z"/>
<path fill="#FFFFFF" opacity="1.000000" stroke="none" 
	d="
M88.926613,28.937386 
	C88.949188,34.000992 88.971764,39.064594 88.994095,44.563972 
	C88.993851,44.999741 89.062668,44.926529 89.062668,44.926529 
	C83.922745,44.926529 78.782814,44.926529 73.258713,44.926529 
	C73.258713,50.199318 73.258713,55.266891 73.258713,60.667236 
	C67.824081,60.667236 62.757473,60.667236 57.343201,60.667236 
	C57.343201,45.072788 57.343201,29.245693 57.343201,13.208070 
	C62.437202,13.208070 67.499382,13.208070 72.948357,13.208070 
	C72.948357,18.409027 72.948357,23.482815 72.948357,29.005657 
	C78.255920,29.005657 83.191574,29.005657 88.563522,29.005930 
	C88.999817,29.006203 88.926613,28.937386 88.926613,28.937386 
z"/>
<path fill="#FFFFFF" opacity="1.000000" stroke="none" 
	d="
M89.034149,29.042873 
	C89.068489,23.947283 89.068489,18.815023 89.068489,13.341466 
	C94.144585,13.341466 99.204185,13.341466 104.633392,13.341466 
	C104.633392,18.217745 104.633392,23.390038 104.633392,28.995480 
	C99.722839,28.995480 94.796127,28.995480 89.398010,28.966433 
	C88.926613,28.937386 88.999817,29.006203 89.034149,29.042873 
z"/>
<path fill="#FFFFFF" opacity="1.000000" stroke="none" 
	d="
M88.957184,45.034081 
	C94.052803,45.068417 99.185097,45.068417 104.658554,45.068417 
	C104.658554,50.144634 104.658554,55.204239 104.658554,60.633423 
	C99.782379,60.633423 94.609520,60.633423 89.004524,60.633423 
	C89.004524,55.722786 89.004524,50.796070 89.033600,45.397942 
	C89.062668,44.926529 88.993851,44.999741 88.957184,45.034081 
z"/>
<path fill="#000000" opacity="1.000000" stroke="none" 
	d="
M17.749008,29.744034 
	C22.040588,29.276779 26.018337,28.860876 29.962749,29.070938 
	C35.083157,29.343626 33.072323,33.654961 32.794167,35.972351 
	C32.429840,39.007671 35.851288,44.028126 29.963861,44.911892 
	C17.575775,46.771481 16.855862,45.969463 17.016731,33.479572 
	C17.031374,32.342747 17.280251,31.208931 17.749008,29.744034 
z"/>
</svg>