<svg version="1.1" id="Layer_1" xmlns="http://www.w3.org/2000/svg" xmlns:xlink="http://www.w3.org/1999/xlink" x="0px" y="0px"
	 width="100%" viewBox="0 0 1024 1024" enable-background="new 0 0 1024 1024" xml:space="preserve">
<path fill="#000" opacity="1.000000" stroke="none" 
	d="
M552.648560,410.000244 
	C552.648743,425.165344 552.771606,439.832153 552.563721,454.494263 
	C552.510925,458.216309 553.701660,459.485168 557.332947,460.391968 
	C588.871033,468.268158 619.787537,477.941742 648.376770,493.850159 
	C672.839722,507.462494 693.911865,524.788208 706.809814,550.245911 
	C731.522095,599.022400 730.872742,681.871216 656.759155,727.854980 
	C628.617126,745.315735 597.663635,754.123962 565.077576,758.023743 
	C562.132202,758.376221 559.185486,758.717285 555.901001,759.103455 
	C555.901001,783.625671 555.901001,807.900635 555.901001,832.587402 
	C533.306763,832.587402 511.081787,832.587402 488.268585,832.587402 
	C488.268585,808.078186 488.268585,783.356506 488.268585,758.299683 
	C420.371216,750.129089 359.574921,725.645691 305.016205,684.202332 
	C321.495087,661.618896 337.848572,639.207336 354.629639,616.209839 
	C375.010101,631.772034 395.891388,646.187012 418.749298,657.455200 
	C441.543182,668.691833 465.359467,676.665039 491.185699,680.335754 
	C491.185699,677.889099 491.185699,675.928223 491.185699,673.967285 
	C491.185699,629.472168 491.054657,584.976135 491.351471,540.482971 
	C491.388580,534.920105 489.508392,533.232971 484.548889,531.998474 
	C457.223572,525.196716 430.502747,516.552551 405.231903,503.937439 
	C382.620605,492.649994 362.205994,478.483643 347.381256,457.521027 
	C328.916107,431.410706 323.297333,401.765137 325.661804,370.628632 
	C330.110657,312.045502 363.989960,275.400177 415.882477,253.034210 
	C437.447327,243.739655 460.192139,238.867340 483.559875,236.842010 
	C484.871582,236.728333 486.168793,236.447601 487.867004,236.183289 
	C487.867004,221.989792 487.867004,207.901428 487.867004,193.407288 
	C510.511902,193.407288 532.741516,193.407288 555.552490,193.407288 
	C555.552490,207.932739 555.552490,222.657028 555.552490,237.787704 
	C609.289795,244.160980 657.731018,262.879974 701.598450,294.695129 
	C687.132507,318.079285 672.805725,341.238525 658.863098,363.776794 
	C641.767334,354.232574 625.258057,344.330627 608.131348,335.646332 
	C590.889526,326.903625 572.447510,321.182373 552.648621,317.222748 
	C552.648621,348.320648 552.648621,378.910461 552.648560,410.000244 
M573.558350,554.905212 
	C566.836914,552.689514 560.115479,550.473816 553.028076,548.137451 
	C553.028076,593.688660 553.028076,638.351807 553.028076,683.362244 
	C571.728149,681.749512 588.967224,677.348145 604.588989,667.081299 
	C637.596863,645.388245 638.144653,590.286194 604.535278,570.235291 
	C594.886169,564.478760 584.409546,560.109314 573.558350,554.905212 
M491.155792,353.500061 
	C491.155792,339.721527 491.155792,325.943024 491.155792,312.083069 
	C490.021545,312.083069 489.521484,312.035065 489.033417,312.091156 
	C486.716827,312.357391 484.395233,312.597443 482.090302,312.945221 
	C464.335388,315.624176 447.756134,321.068573 434.306732,333.649475 
	C410.232025,356.169678 410.576996,397.013702 435.249603,417.628967 
	C451.320648,431.057251 470.842316,437.268494 491.155792,443.413666 
	C491.155792,413.374390 491.155792,383.937225 491.155792,353.500061 
z"/>
</svg>