<?xml version="1.0" encoding="UTF-8" standalone="no"?>
<!-- Created with Inkscape (http://www.inkscape.org/) -->

<svg
   version="1.1"
   id="svg2"
   width="393.98001"
   height="395.98001"
   viewBox="0 0 393.98001 395.98001"
   sodipodi:docname="orange-money-seeklogo.com.ai"
   xmlns:inkscape="http://www.inkscape.org/namespaces/inkscape"
   xmlns:sodipodi="http://sodipodi.sourceforge.net/DTD/sodipodi-0.dtd"
   xmlns="http://www.w3.org/2000/svg"
   xmlns:svg="http://www.w3.org/2000/svg">
  <defs
     id="defs6">
    <clipPath
       clipPathUnits="userSpaceOnUse"
       id="clipPath18">
      <path
         d="M 0,296.985 H 295.485 V 0 H 0 Z"
         id="path16" />
    </clipPath>
  </defs>
  <sodipodi:namedview
     id="namedview4"
     pagecolor="#ffffff"
     bordercolor="#000000"
     borderopacity="0.25"
     inkscape:showpageshadow="2"
     inkscape:pageopacity="0.0"
     inkscape:pagecheckerboard="0"
     inkscape:deskcolor="#d1d1d1" />
  <g
     id="g8"
     inkscape:groupmode="layer"
     inkscape:label="orange-money-seeklogo.com"
     transform="matrix(1.3333333,0,0,-1.3333333,0,395.98)">
    
    <g
       id="g12">
      <g
         id="g14"
         clip-path="url(#clipPath18)">
        <g
           id="g20"
           transform="translate(63.3486,231.5254)">
          <path
             d="m 0,0 c 1.181,0 58.118,-5.63 64.111,-6.357 5.993,-0.726 17.073,1.816 17.254,-13.439 0.182,-15.257 -0.545,-67.927 -0.545,-72.103 0,-4.178 -4.176,-17.254 -14.892,-16.891 -10.716,0.363 -16.528,9.443 -16.528,15.8 0,6.357 0.182,26.88 0.182,26.88 0,0 -0.182,0.818 -1.544,-0.454 -1.362,-1.271 -41.954,-40.773 -46.857,-45.406 -4.905,-4.631 -19.252,-9.353 -26.427,0.637 -7.174,9.988 -5.902,19.797 2.27,28.242 8.173,8.445 45.587,44.133 47.04,45.314 1.454,1.181 0.727,2.906 -0.999,2.724 -1.725,-0.181 -15.982,1.181 -22.52,1.817 -6.539,0.635 -16.527,8.626 -14.167,20.432 C -11.261,-0.999 -1.181,0 0,0"
             style="fill:#fffffe;fill-opacity:1;fill-rule:nonzero;stroke:none"
             id="path22" />
        </g>
        <g
           id="g24"
           transform="translate(234.6719,114.29)">
          <path
             d="m 0,0 c -1.181,0 -58.119,5.629 -64.112,6.355 -5.994,0.727 -17.073,-1.816 -17.254,13.44 -0.182,15.257 0.545,67.927 0.545,72.104 0,4.177 4.176,17.254 14.892,16.891 10.716,-0.364 16.528,-9.444 16.528,-15.801 0,-6.357 -0.182,-26.88 -0.182,-26.88 0,0 0.182,-0.817 1.544,0.454 1.362,1.271 41.955,40.773 46.858,45.405 4.905,4.631 19.252,9.353 26.426,-0.636 7.174,-9.989 5.902,-19.796 -2.27,-28.242 -8.173,-8.445 -45.587,-44.133 -47.04,-45.314 -1.454,-1.18 -0.726,-2.906 0.999,-2.724 1.725,0.181 15.982,-1.181 22.52,-1.817 C 5.993,32.6 15.982,24.608 13.621,12.805 11.26,0.998 1.18,0 0,0"
             style="fill:#fff;fill-opacity:1;fill-rule:nonzero;stroke:none"
             id="path26" />
        </g>
        <g
           id="g28"
           transform="translate(39.3223,87.0342)">
          <path
             d="m 0,0 c 0,-3.012 0.81,-5.381 2.428,-7.113 1.618,-1.733 3.648,-2.598 6.091,-2.598 2.487,0 4.534,0.873 6.141,2.623 1.607,1.748 2.41,4.231 2.41,7.445 0,2.034 -0.343,3.809 -1.03,5.325 -0.687,1.515 -1.692,2.691 -3.016,3.525 -1.323,0.836 -2.808,1.252 -4.455,1.252 -2.34,0 -4.352,-0.803 -6.039,-2.41 C 0.844,6.441 0,3.758 0,0 m -3.407,0.051 c 0,4.144 1.112,7.39 3.339,9.736 2.226,2.346 5.099,3.518 8.621,3.518 2.304,0 4.384,-0.551 6.235,-1.653 1.851,-1.101 3.262,-2.638 4.233,-4.607 0.971,-1.973 1.457,-4.207 1.457,-6.705 0,-2.533 -0.511,-4.799 -1.534,-6.797 -1.021,-2 -2.469,-3.514 -4.343,-4.541 -1.874,-1.027 -3.897,-1.541 -6.066,-1.541 -2.35,0 -4.452,0.568 -6.304,1.703 -1.85,1.135 -3.253,2.686 -4.208,4.65 -0.954,1.965 -1.43,4.043 -1.43,6.237"
             style="fill:#fff;fill-opacity:1;fill-rule:nonzero;stroke:none"
             id="path30" />
        </g>
        <g
           id="g32"
           transform="translate(63.6338,74.9209)">
          <path
             d="M 0,0 V 18.092 H 2.76 V 15.35 c 0.704,1.283 1.354,2.129 1.95,2.539 0.597,0.408 1.252,0.613 1.968,0.613 1.033,0 2.084,-0.33 3.152,-0.988 L 8.773,14.668 c -0.75,0.443 -1.499,0.664 -2.249,0.664 -0.67,0 -1.271,-0.201 -1.805,-0.603 C 4.185,14.324 3.805,13.766 3.577,13.051 3.236,11.959 3.066,10.768 3.066,9.471 V 0 Z"
             style="fill:#fff;fill-opacity:1;fill-rule:nonzero;stroke:none"
             id="path34" />
        </g>
        <g
           id="g36"
           transform="translate(86.8369,84.001)">
          <path
             d="M 0,0 C -1.113,-0.453 -2.782,-0.84 -5.009,-1.158 -6.27,-1.34 -7.161,-1.545 -7.683,-1.771 -8.206,-2 -8.609,-2.332 -8.893,-2.77 c -0.284,-0.435 -0.425,-0.921 -0.425,-1.455 0,-0.818 0.309,-1.5 0.927,-2.045 0.62,-0.544 1.526,-0.816 2.718,-0.816 1.181,0 2.232,0.258 3.152,0.774 0.919,0.517 1.595,1.224 2.027,2.121 C -0.165,-3.498 0,-2.477 0,-1.125 Z m 0.256,-6.848 c -1.136,-0.966 -2.23,-1.648 -3.279,-2.045 -1.051,-0.398 -2.179,-0.595 -3.382,-0.595 -1.989,0 -3.516,0.484 -4.583,1.455 -1.069,0.971 -1.602,2.213 -1.602,3.722 0,0.887 0.202,1.696 0.605,2.428 0.403,0.733 0.931,1.321 1.585,1.764 0.652,0.443 1.388,0.777 2.206,1.006 0.601,0.158 1.51,0.312 2.725,0.459 2.477,0.295 4.299,0.648 5.469,1.056 0.012,0.42 0.018,0.688 0.018,0.801 0,1.248 -0.29,2.129 -0.87,2.641 -0.783,0.693 -1.948,1.039 -3.493,1.039 -1.441,0 -2.507,-0.252 -3.194,-0.758 -0.687,-0.506 -1.195,-1.4 -1.524,-2.684 l -2.999,0.411 c 0.273,1.281 0.721,2.318 1.346,3.107 0.625,0.789 1.528,1.396 2.709,1.824 1.181,0.426 2.55,0.639 4.106,0.639 1.545,0 2.799,-0.182 3.765,-0.545 C 0.829,8.512 1.539,8.055 1.994,7.506 2.447,6.953 2.766,6.258 2.947,5.418 3.05,4.895 3.101,3.953 3.101,2.59 V -1.5 c 0,-2.85 0.065,-4.652 0.196,-5.408 0.131,-0.756 0.389,-1.481 0.775,-2.172 H 0.869 c -0.318,0.635 -0.522,1.379 -0.613,2.232"
             style="fill:#fff;fill-opacity:1;fill-rule:nonzero;stroke:none"
             id="path38" />
        </g>
        <g
           id="g40"
           transform="translate(94.6904,74.9209)">
          <path
             d="M 0,0 V 18.092 H 2.761 V 15.52 c 1.328,1.988 3.248,2.982 5.758,2.982 1.09,0 2.092,-0.197 3.006,-0.588 0.914,-0.393 1.599,-0.906 2.054,-1.543 0.454,-0.635 0.773,-1.391 0.954,-2.266 0.113,-0.568 0.17,-1.56 0.17,-2.98 V 0 h -3.066 v 11.006 c 0,1.248 -0.119,2.183 -0.358,2.803 -0.239,0.617 -0.662,1.111 -1.269,1.48 C 9.401,15.658 8.689,15.844 7.871,15.844 6.565,15.844 5.438,15.428 4.489,14.6 3.541,13.771 3.067,12.197 3.067,9.881 V 0 Z"
             style="fill:#fff;fill-opacity:1;fill-rule:nonzero;stroke:none"
             id="path42" />
        </g>
        <g
           id="g44"
           transform="translate(116.0723,84.29)">
          <path
             d="m 0,0 c 0,-2.373 0.471,-4.105 1.414,-5.195 0.942,-1.092 2.123,-1.635 3.543,-1.635 1.408,0 2.59,0.541 3.544,1.625 0.954,1.086 1.432,2.787 1.432,5.103 0,2.215 -0.493,3.885 -1.475,5.008 C 7.476,6.031 6.292,6.594 4.906,6.594 3.543,6.594 2.385,6.039 1.431,4.934 0.477,3.826 0,2.182 0,0 m -2.539,-10.869 2.981,-0.442 c 0.125,-0.921 0.472,-1.591 1.039,-2.011 0.761,-0.567 1.801,-0.852 3.119,-0.852 1.42,0 2.515,0.285 3.288,0.852 0.772,0.568 1.295,1.363 1.567,2.384 0.159,0.625 0.233,1.938 0.222,3.936 -1.341,-1.578 -3.01,-2.367 -5.009,-2.367 -2.487,0 -4.412,0.896 -5.775,2.691 -1.364,1.795 -2.044,3.948 -2.044,6.457 0,1.727 0.311,3.319 0.936,4.78 0.624,1.459 1.53,2.586 2.717,3.38 1.187,0.795 2.581,1.194 4.183,1.194 2.135,0 3.895,-0.863 5.282,-2.59 v 2.18 h 2.827 V -6.916 c 0,-2.816 -0.286,-4.813 -0.86,-5.988 -0.574,-1.176 -1.482,-2.106 -2.726,-2.785 -1.244,-0.682 -2.774,-1.024 -4.591,-1.024 -2.159,0 -3.902,0.486 -5.23,1.457 -1.329,0.971 -1.971,2.434 -1.926,4.387"
             style="fill:#fff;fill-opacity:1;fill-rule:nonzero;stroke:none"
             id="path46" />
        </g>
        <g
           id="g48"
           transform="translate(135.8174,85.7041)">
          <path
             d="M 0,0 H 10.103 C 9.967,1.523 9.58,2.664 8.944,3.424 7.968,4.605 6.701,5.197 5.146,5.197 3.736,5.197 2.553,4.727 1.593,3.783 0.633,2.84 0.103,1.58 0,0 m 10.068,-4.957 3.169,-0.393 c -0.5,-1.851 -1.425,-3.287 -2.776,-4.31 -1.353,-1.022 -3.078,-1.531 -5.18,-1.531 -2.646,0 -4.744,0.814 -6.295,2.443 -1.549,1.629 -2.325,3.916 -2.325,6.857 0,3.043 0.783,5.407 2.351,7.088 1.567,1.68 3.6,2.522 6.099,2.522 2.419,0 4.396,-0.824 5.929,-2.471 1.533,-1.646 2.301,-3.965 2.301,-6.951 0,-0.182 -0.007,-0.453 -0.018,-0.818 H -0.17 c 0.113,-1.987 0.675,-3.508 1.687,-4.565 1.01,-1.057 2.271,-1.586 3.782,-1.586 1.124,0 2.084,0.297 2.879,0.887 0.795,0.59 1.425,1.533 1.89,2.828"
             style="fill:#fff;fill-opacity:1;fill-rule:nonzero;stroke:none"
             id="path50" />
        </g>
        <g
           id="g52"
           transform="translate(162.8887,74.9209)">
          <path
             d="M 0,0 V 24.975 H 4.975 L 10.887,7.291 c 0.545,-1.646 0.942,-2.879 1.192,-3.697 0.283,0.91 0.727,2.244 1.329,4.004 l 5.98,17.377 h 4.446 V 0 H 20.648 V 20.904 L 13.391,0 H 10.409 L 3.186,21.262 V 0 Z"
             style="fill:#fff;fill-opacity:1;fill-rule:nonzero;stroke:none"
             id="path54" />
        </g>
        <g
           id="g56"
           transform="translate(193.6738,83.9658)">
          <path
             d="m 0,0 c 0,-2.314 0.505,-4.051 1.517,-5.203 1.01,-1.152 2.283,-1.731 3.815,-1.731 1.522,0 2.788,0.58 3.8,1.739 1.011,1.158 1.515,2.924 1.515,5.299 0,2.236 -0.507,3.931 -1.524,5.085 C 8.106,6.342 6.843,6.918 5.332,6.918 3.8,6.918 2.527,6.344 1.517,5.197 0.505,4.049 0,2.318 0,0 m -3.151,0 c 0,3.352 0.93,5.834 2.794,7.445 1.555,1.34 3.452,2.012 5.689,2.012 2.487,0 4.521,-0.816 6.1,-2.445 C 13.01,5.381 13.8,3.131 13.8,0.256 c 0,-2.328 -0.35,-4.158 -1.048,-5.494 -0.698,-1.334 -1.716,-2.371 -3.05,-3.11 -1.334,-0.736 -2.791,-1.105 -4.37,-1.105 -2.532,0 -4.579,0.81 -6.141,2.435 -1.562,1.623 -2.342,3.963 -2.342,7.018"
             style="fill:#fff;fill-opacity:1;fill-rule:nonzero;stroke:none"
             id="path58" />
        </g>
        <g
           id="g60"
           transform="translate(211.0684,74.9209)">
          <path
             d="M 0,0 V 18.092 H 2.76 V 15.52 c 1.329,1.988 3.248,2.982 5.758,2.982 1.09,0 2.092,-0.197 3.007,-0.588 0.914,-0.393 1.598,-0.906 2.053,-1.543 0.454,-0.635 0.773,-1.391 0.954,-2.266 0.114,-0.568 0.17,-1.56 0.17,-2.98 V 0 h -3.066 v 11.006 c 0,1.248 -0.119,2.183 -0.358,2.803 -0.239,0.617 -0.662,1.111 -1.269,1.48 C 9.4,15.658 8.688,15.844 7.87,15.844 6.564,15.844 5.437,15.428 4.489,14.6 3.541,13.771 3.066,12.197 3.066,9.881 V 0 Z"
             style="fill:#fff;fill-opacity:1;fill-rule:nonzero;stroke:none"
             id="path62" />
        </g>
        <g
           id="g64"
           transform="translate(232.7891,85.7041)">
          <path
             d="M 0,0 H 10.104 C 9.968,1.523 9.581,2.664 8.945,3.424 7.968,4.605 6.701,5.197 5.146,5.197 3.737,5.197 2.554,4.727 1.594,3.783 0.634,2.84 0.104,1.58 0,0 m 10.069,-4.957 3.169,-0.393 c -0.5,-1.851 -1.425,-3.287 -2.777,-4.31 -1.352,-1.022 -3.077,-1.531 -5.179,-1.531 -2.646,0 -4.744,0.814 -6.295,2.443 -1.55,1.629 -2.326,3.916 -2.326,6.857 0,3.043 0.784,5.407 2.352,7.088 1.567,1.68 3.6,2.522 6.098,2.522 2.419,0 4.397,-0.824 5.93,-2.471 1.532,-1.646 2.299,-3.965 2.299,-6.951 0,-0.182 -0.006,-0.453 -0.017,-0.818 H -0.17 c 0.113,-1.987 0.676,-3.508 1.687,-4.565 1.01,-1.057 2.271,-1.586 3.782,-1.586 1.125,0 2.085,0.297 2.88,0.887 0.794,0.59 1.425,1.533 1.89,2.828"
             style="fill:#fff;fill-opacity:1;fill-rule:nonzero;stroke:none"
             id="path66" />
        </g>
        <g
           id="g68"
           transform="translate(249.7412,67.9521)">
          <path
             d="m 0,0 -0.341,2.879 c 0.67,-0.18 1.255,-0.272 1.755,-0.272 0.682,0 1.227,0.114 1.636,0.342 0.408,0.227 0.743,0.543 1.005,0.953 0.193,0.307 0.505,1.069 0.936,2.284 0.057,0.169 0.148,0.419 0.274,0.75 L -1.602,25.061 H 1.703 L 5.469,14.584 c 0.488,-1.328 0.925,-2.727 1.311,-4.191 0.353,1.408 0.773,2.783 1.261,4.123 l 3.868,10.545 h 3.066 L 8.092,6.662 C 7.354,4.674 6.78,3.305 6.371,2.557 5.826,1.545 5.202,0.805 4.498,0.332 3.793,-0.139 2.953,-0.375 1.977,-0.375 1.385,-0.375 0.727,-0.25 0,0"
             style="fill:#fff;fill-opacity:1;fill-rule:nonzero;stroke:none"
             id="path70" />
        </g>
      </g>
    </g>
  </g>
</svg>
