<?xml version="1.0" encoding="UTF-8"?>
<!DOCTYPE svg PUBLIC "-//W3C//DTD SVG 1.1//EN" "http://www.w3.org/Graphics/SVG/1.1/DTD/svg11.dtd">
<svg xmlns="http://www.w3.org/2000/svg" version="1.1" width="1996px" height="1988px" style="shape-rendering:geometricPrecision; text-rendering:geometricPrecision; image-rendering:optimizeQuality; fill-rule:evenodd; clip-rule:evenodd" xmlns:xlink="http://www.w3.org/1999/xlink">
<g><path style="opacity:0.999" fill="#0267f9" d="M 314.5,38.5 C 680.832,39.6615 1047.17,39.6615 1413.5,38.5C 1506.18,38.3523 1598.85,38.8523 1691.5,40C 1770.34,50.4922 1834.84,86.3255 1885,147.5C 1901.05,166.931 1914.05,188.265 1924,211.5C 1937.03,243.63 1945.03,276.963 1948,311.5C 1948.67,766.167 1948.67,1220.83 1948,1675.5C 1946.87,1688.96 1944.87,1702.3 1942,1715.5C 1936.56,1738.1 1930.72,1760.6 1924.5,1783C 1922.16,1784.96 1919.49,1786.46 1916.5,1787.5C 1883.9,1855.26 1832.57,1902.76 1762.5,1930C 1736.06,1940.09 1708.73,1946.09 1680.5,1948C 1220.5,1948.67 760.5,1948.67 300.5,1948C 219.747,1939.71 153.581,1904.55 102,1842.5C 73.3557,1807.88 53.689,1768.54 43,1724.5C 40.7896,1713.27 39.4562,1701.94 39,1690.5C 38.5978,1296.17 38.5978,901.836 39,507.5C 39.1883,420.151 40.1883,332.817 42,245.5C 50.2131,204.739 68.2131,169.073 96,138.5C 143.932,89.4396 201.765,57.9396 269.5,44C 284.555,41.3645 299.555,39.5312 314.5,38.5 Z"/></g>
<g><path style="opacity:1" fill="#000" d="M 324.5,142.5 C 771.833,142.333 1219.17,142.5 1666.5,143C 1729.5,149.069 1779,177.903 1815,229.5C 1820.86,239.214 1826.19,249.214 1831,259.5C 1836.24,279.5 1839.24,299.833 1840,320.5C 1840.67,772.5 1840.67,1224.5 1840,1676.5C 1838.73,1694.38 1836.07,1712.04 1832,1729.5C 1799.05,1796.25 1745.55,1834.41 1671.5,1844C 1212.83,1844.67 754.167,1844.67 295.5,1844C 231.699,1828.51 185.532,1791.35 157,1732.5C 149.198,1714.63 144.531,1695.96 143,1676.5C 142.333,1219.83 142.333,763.167 143,306.5C 147.371,270.689 161.038,239.022 184,211.5C 198.693,193.8 215.526,178.633 234.5,166C 250.771,160.465 267.104,155.132 283.5,150C 297.113,146.4 310.779,143.9 324.5,142.5 Z"/></g>
<g><path style="opacity:1" fill="#0267f9" d="M 993.5,562.5 C 1057.83,563.808 1122.16,563.808 1186.5,562.5C 1229.84,563.016 1273.17,563.849 1316.5,565C 1377.1,567.424 1432.43,585.424 1482.5,619C 1559.18,676.889 1593.68,754.056 1586,850.5C 1579.39,949.397 1530.56,1017.9 1439.5,1056C 1398.64,1071.71 1356.31,1080.37 1312.5,1082C 1258.51,1083.19 1204.51,1083.86 1150.5,1084C 1140.72,1083.12 1134.55,1087.29 1132,1096.5C 1131.67,1183.5 1131.33,1270.5 1131,1357.5C 1128.7,1366.45 1122.87,1370.95 1113.5,1371C 1071.84,1370.34 1030.17,1370.34 988.5,1371C 978.799,1370.3 973.299,1365.13 972,1355.5C 971.333,1096.83 971.333,838.167 972,579.5C 972.467,574.419 974.634,570.252 978.5,567C 983.324,564.46 988.324,562.96 993.5,562.5 Z"/></g>
<g><path style="opacity:1" fill="#0267f9" d="M 451.5,563.5 C 617.834,563.333 784.167,563.5 950.5,564C 958.247,565.747 962.413,570.58 963,578.5C 962.414,595.478 961.914,612.478 961.5,629.5C 962.194,647.166 962.36,664.833 962,682.5C 960.594,687.573 957.428,691.073 952.5,693C 898.044,694.158 843.544,694.658 789,694.5C 734.819,694.494 680.652,694.16 626.5,693.5C 621.433,694.007 616.433,694.84 611.5,696C 607.942,697.892 605.442,700.725 604,704.5C 602.946,711.114 602.446,717.78 602.5,724.5C 603.828,776.834 603.828,829.167 602.5,881.5C 602.454,887.887 602.954,894.22 604,900.5C 606.323,905.92 610.49,908.754 616.5,909C 672.83,908.951 729.163,908.784 785.5,908.5C 828.225,908.341 870.891,908.841 913.5,910C 918.626,912.066 921.459,915.9 922,921.5C 921.298,951.832 921.464,982.166 922.5,1012.5C 922.333,1017.5 922.167,1022.5 922,1027.5C 919.679,1035.09 914.512,1038.92 906.5,1039C 810.165,1039.37 713.832,1039.37 617.5,1039C 608.667,1039.83 603.833,1044.67 603,1053.5C 603.394,1153.84 603.394,1254.17 603,1354.5C 601.376,1366.92 594.21,1372.59 581.5,1371.5C 541.503,1370.17 501.503,1370.17 461.5,1371.5C 455.434,1371.47 449.934,1369.8 445,1366.5C 443.561,1364.73 442.561,1362.73 442,1360.5C 440.878,1343.7 440.378,1326.87 440.5,1310C 440.956,1073.5 441.122,837.001 441,600.5C 441.333,591.167 441.667,581.833 442,572.5C 443.129,567.201 446.296,564.201 451.5,563.5 Z"/></g>
<g><path style="opacity:1" fill="#000" d="M 1150.5,693.5 C 1205.16,694.036 1259.82,694.869 1314.5,696C 1359.93,702.622 1392.1,726.788 1411,768.5C 1422.36,793.305 1427.02,819.305 1425,846.5C 1420.06,881.556 1403.9,910.056 1376.5,932C 1359.16,943.225 1340.16,949.891 1319.5,952C 1306.88,953.552 1294.21,954.552 1281.5,955C 1235.17,955.667 1188.83,955.667 1142.5,955C 1136.55,953.387 1133.05,949.553 1132,943.5C 1131.33,864.833 1131.33,786.167 1132,707.5C 1134.64,698.103 1140.81,693.436 1150.5,693.5 Z"/></g>
</svg>
