<svg version="1.1" id="Layer_1" xmlns="http://www.w3.org/2000/svg" xmlns:xlink="http://www.w3.org/1999/xlink" x="0px" y="0px"
	 width="100%" viewBox="0 0 512 348" enable-background="new 0 0 512 348" xml:space="preserve">

<path fill="#fff" opacity="1.000000" stroke="none" 
	d="
M415.998779,320.159729 
	C412.496796,329.113281 404.845062,332.079865 396.326385,332.782776 
	C390.516113,333.262207 384.563354,332.448273 378.709839,331.859375 
	C371.567078,331.140839 367.908295,326.430969 366.111389,319.071472 
	C366.077515,272.242737 366.049713,226.258331 365.950958,180.274094 
	C365.946564,178.221481 365.297150,176.170242 364.948181,174.118362 
	C362.187256,171.018982 360.315735,172.092850 358.124847,175.075928 
	C325.598633,219.363800 293.114258,263.683868 260.264679,307.731354 
	C254.589935,315.340546 248.075867,322.805634 240.518890,328.407379 
	C231.066376,335.414246 219.675400,334.632904 209.252014,329.801300 
	C205.248398,327.945465 201.135345,324.572510 201.100342,318.104553 
	C201.064667,307.795746 201.058868,298.351196 200.882462,288.909821 
	C200.759384,282.322845 200.402588,275.740204 200.150192,269.155640 
	C199.772781,257.773987 199.395355,246.392365 199.412476,234.262360 
	C199.857132,227.085114 200.031784,220.654114 199.923141,214.227905 
	C199.809525,207.506332 199.423523,200.789368 199.156586,194.070389 
	C198.801910,187.508972 198.447266,180.947571 198.003082,172.730087 
	C195.489670,174.711929 193.509293,175.686478 192.359924,177.265793 
	C165.426682,214.274872 138.629684,251.383072 111.700294,288.394928 
	C100.978691,303.130737 90.000717,317.679993 78.529251,332.641113 
	C59.974453,332.919800 42.029881,332.871521 24.085302,332.823273 
	C24.334908,332.379211 24.584517,331.935150 24.897026,331.240173 
	C39.771141,311.097717 54.520466,291.159698 69.410645,271.327454 
	C84.899628,250.697678 100.569901,230.204071 116.073494,209.585190 
	C125.618874,196.890396 134.861206,183.966217 144.493073,171.338364 
	C155.140823,157.378662 166.175537,143.714417 176.853912,129.777618 
	C183.647659,120.910805 190.880692,112.594742 201.490311,108.236198 
	C214.060120,103.072403 233.005844,102.722076 242.640335,114.235428 
	C247.017700,119.466431 249.904800,125.400238 251.005646,133.030701 
	C250.998123,169.204300 250.970398,204.513321 251.004242,239.822296 
	C251.005920,241.580658 251.542572,243.338501 251.830124,245.096588 
	C253.238907,244.830154 255.331512,245.069351 255.956802,244.223633 
	C273.041351,221.116974 289.793915,197.763367 306.994751,174.744568 
	C320.329987,156.898819 334.118103,139.388519 347.889587,121.874321 
	C350.534119,118.511131 353.775574,115.392464 358.356964,114.954842 
	C358.930054,120.177383 358.642303,125.338127 360.144775,129.910614 
	C366.957520,150.643936 393.083374,160.754837 411.479553,143.160385 
	C412.461334,142.221390 413.922424,141.783554 415.160431,141.112427 
	C415.445282,142.136932 415.730103,143.161423 416.014679,145.043823 
	C416.009216,203.987747 416.003998,262.073730 415.998779,320.159729 
z"/>
<path fill="#fff" opacity="1.000000" stroke="none" 
	d="
M490.924042,82.603821 
	C485.508606,85.983902 480.148102,88.963326 474.269318,92.230820 
	C464.689514,65.465889 446.597687,46.679016 420.182617,37.168255 
	C393.842499,27.684498 368.017365,30.347246 343.321442,45.267120 
	C340.401093,39.433319 337.581635,33.800991 334.664795,27.974203 
	C348.782013,18.967276 364.099426,14.917941 380.561218,12.995127 
	C386.706909,12.642316 392.429321,12.334950 398.766541,12.433393 
	C413.633392,14.848500 427.403381,18.279953 440.322083,24.993460 
	C455.097626,32.671909 467.518158,42.981941 477.012054,56.599033 
	C482.020691,63.782875 486.281677,71.487991 490.880188,78.957748 
	C490.913116,80.039551 490.946045,81.121353 490.924042,82.603821 
z"/>

<path fill="#fff" opacity="1.000000" stroke="none" 
	d="
M437.707153,71.282433 
	C446.583008,79.750023 452.248108,89.705276 455.561493,101.108192 
	C456.424103,104.076965 455.977661,105.767105 453.079987,107.504799 
	C447.896210,110.613457 443.119202,114.400444 437.529816,118.358734 
	C435.264221,99.946808 427.173798,85.769051 410.147522,78.042511 
	C393.518799,70.496368 377.513123,72.388893 362.066315,82.247528 
	C359.121490,77.000656 356.188202,72.016998 353.515198,66.897438 
	C352.377075,64.717613 352.608643,62.686935 355.249359,61.271809 
	C366.515961,55.234184 378.473511,51.699608 391.273071,52.121323 
	C408.922455,52.702831 424.533875,58.693035 437.707153,71.282433 
z"/>
<path fill="#fff" opacity="1.000000" stroke="none" 
	d="
M377.465759,143.761475 
	C371.280945,139.443573 366.287811,134.534012 364.874298,127.232132 
	C364.104980,123.258209 364.015594,119.085907 364.225037,115.034370 
	C364.280090,113.969177 366.614960,112.119347 367.859772,112.154564 
	C384.437744,112.623558 399.372955,117.325180 411.166901,129.726089 
	C413.234253,131.899841 413.509003,133.636139 411.414795,136.129028 
	C403.980682,144.978409 392.790466,150.847168 377.465759,143.761475 
z"/>

</svg>